<?xml version="1.0" encoding="utf-8"?>
<!-- Generator: Adobe Illustrator 22.1.0, SVG Export Plug-In . SVG Version: 6.00 Build 0)  -->
<svg version="1.1" id="Layer_1" xmlns="http://www.w3.org/2000/svg" xmlns:xlink="http://www.w3.org/1999/xlink" x="0px" y="0px"
	 viewBox="0 0 400 400" style="enable-background:new 0 0 400 400;" xml:space="preserve">
<g>
	<path d="M320.4,322.5c-3.7,0-7.3-1-10.5-2.8l-98-56.6c-3.3-1.9-7.1-2.9-11-2.9c-3.9,0-7.7,1-11,2.9l-98,56.6
		c-3.2,1.8-6.8,2.8-10.5,2.8c-7.5,0-14.5-4-18.2-10.5c-2.8-4.9-3.5-10.5-2.1-15.9c1.5-5.4,4.9-9.9,9.8-12.7l98-56.6
		c6.8-3.9,11-11.2,11-19V94.5c0-11.6,9.4-21,21-21c11.6,0,21,9.4,21,21v113.2c0,7.8,4.2,15.1,11,19l98,56.6
		c4.9,2.8,8.3,7.3,9.8,12.7c1.5,5.4,0.7,11.1-2.1,15.9C334.8,318.5,327.9,322.5,320.4,322.5C320.4,322.5,320.4,322.5,320.4,322.5z"
		/>
	<path d="M200.9,74c11.3,0,20.5,9.2,20.5,20.5v113.2c0,8,4.3,15.5,11.2,19.5l98,56.6c9.8,5.6,13.1,18.2,7.5,28
		c-3.6,6.3-10.5,10.2-17.8,10.2c-3.6,0-7.1-1-10.2-2.7l-98-56.6c-3.4-2-7.3-3-11.2-3s-7.8,1-11.2,3l-98,56.6
		C88.5,321,85,322,81.4,322c-7.3,0-14.1-3.9-17.8-10.2c-2.7-4.7-3.5-10.3-2-15.5c1.4-5.3,4.8-9.7,9.5-12.4l98-56.6
		c6.9-4,11.2-11.5,11.2-19.5V94.5C180.4,83.2,189.6,74,200.9,74 M200.9,73L200.9,73c-11.9,0-21.5,9.6-21.5,21.5v113.2
		c0,7.7-4.1,14.8-10.7,18.6l-98,56.6c-10.3,5.9-13.8,19.1-7.9,29.4l0,0c4,6.9,11.2,10.7,18.6,10.7c3.6,0,7.3-0.9,10.7-2.9l98-56.6
		c3.3-1.9,7-2.9,10.7-2.9s7.4,1,10.7,2.9l98,56.6c3.4,2,7.1,2.9,10.7,2.9c7.4,0,14.6-3.9,18.6-10.7l0,0c5.9-10.3,2.4-23.4-7.9-29.4
		l-98-56.6c-6.6-3.8-10.7-10.9-10.7-18.6V94.5C222.4,82.6,212.8,73,200.9,73L200.9,73z"/>
</g>
</svg>
